<?xml version="1.0" encoding="UTF-8"?>
<!DOCTYPE svg PUBLIC "-//W3C//DTD SVG 1.1//EN" "http://www.w3.org/Graphics/SVG/1.1/DTD/svg11.dtd">
<svg xmlns="http://www.w3.org/2000/svg" version="1.1" width="256px" height="256px" style="shape-rendering:geometricPrecision; text-rendering:geometricPrecision; image-rendering:optimizeQuality; fill-rule:evenodd; clip-rule:evenodd" xmlns:xlink="http://www.w3.org/1999/xlink">
<g><path style="opacity:1" fill="#303030" d="M 5.5,0.5 C 5.5,0.166667 5.5,-0.166667 5.5,-0.5C 11.8333,-0.5 18.1667,-0.5 24.5,-0.5C 24.2488,1.17028 23.5822,2.67028 22.5,4C 27.6092,6.30461 32.7758,8.47128 38,10.5C 38.772,10.3552 39.4387,10.0219 40,9.5C 40.5573,7.38533 41.3906,5.38533 42.5,3.5C 41.9747,2.80762 41.3081,2.30762 40.5,2C 42.1193,1.76445 43.1193,0.931117 43.5,-0.5C 44.8333,-0.5 46.1667,-0.5 47.5,-0.5C 47.6107,0.117425 47.944,0.617425 48.5,1C 47.5622,2.06326 46.5622,3.22993 45.5,4.5C 45.3602,5.90293 45.3602,7.40293 45.5,9C 44.1667,9.66667 43.1667,10.6667 42.5,12C 48.8439,14.1134 55.0105,16.6134 61,19.5C 64.3181,13.0478 67.1514,6.38109 69.5,-0.5C 70.1667,-0.5 70.8333,-0.5 71.5,-0.5C 70.8288,0.847141 70.8288,2.01381 71.5,3C 68.8333,4 68.8333,5 71.5,6C 67.7009,7.11378 67.7009,8.44711 71.5,10C 70.8333,10.3333 70.1667,10.6667 69.5,11C 70.8333,12 72.1667,13 73.5,14C 71.1817,14.3423 69.015,13.8423 67,12.5C 65.3602,14.579 64.1936,16.9124 63.5,19.5C 66.0439,21.0186 68.7105,22.352 71.5,23.5C 72.9867,18.3428 73.6534,18.6761 73.5,24.5C 76.1667,25.1667 78.8333,25.8333 81.5,26.5C 82.1383,24.54 82.1383,22.7067 81.5,21C 84.001,19.5823 83.6677,18.5823 80.5,18C 82.0016,17.4169 83.3349,16.5836 84.5,15.5C 84.2907,14.914 83.9574,14.414 83.5,14C 86.9788,12.4686 87.6455,10.4686 85.5,8C 86.448,7.51722 87.448,7.35055 88.5,7.5C 89.0522,5.66927 89.0522,4.0026 88.5,2.5C 85.9795,1.21473 83.3128,0.548065 80.5,0.5C 80.6495,1.55198 80.4828,2.55198 80,3.5C 79.5518,1.77564 78.7185,1.10897 77.5,1.5C 77.8627,0.816537 78.1961,0.14987 78.5,-0.5C 83.8333,-0.5 89.1667,-0.5 94.5,-0.5C 94.7394,1.4672 94.4061,3.30054 93.5,5C 94.8333,5.66667 96.1667,6.33333 97.5,7C 95.8204,7.03434 94.3204,7.201 93,7.5C 91.9719,10.5091 91.3052,13.5091 91,16.5C 93.8027,18.67 96.8027,19.3366 100,18.5C 101.052,20.811 102.885,22.1443 105.5,22.5C 108.693,14.9221 111.693,7.25546 114.5,-0.5C 115.167,-0.5 115.833,-0.5 116.5,-0.5C 112.528,8.55235 109.195,18.219 106.5,28.5C 108.308,28.4914 109.975,28.9914 111.5,30C 109.5,30 107.5,30 105.5,30C 104.74,31.4411 104.074,32.9411 103.5,34.5C 108.908,37.3021 114.574,39.3021 120.5,40.5C 120.804,37.4208 121.804,34.5875 123.5,32C 119.193,30.9788 118.859,29.8121 122.5,28.5C 123.086,28.7093 123.586,29.0426 124,29.5C 124.309,28.2341 124.809,27.0674 125.5,26C 125.167,25.6667 124.833,25.3333 124.5,25C 127.167,23.3333 127.167,21.6667 124.5,20C 129.002,19.0646 129.335,17.7313 125.5,16C 126.938,15.7811 128.271,15.2811 129.5,14.5C 129.291,13.914 128.957,13.414 128.5,13C 132.092,10.9421 132.092,9.27547 128.5,8C 134.826,6.04341 134.826,4.37675 128.5,3C 130.207,2.80471 131.874,2.80471 133.5,3C 134.337,1.98873 134.67,0.822066 134.5,-0.5C 143.833,-0.5 153.167,-0.5 162.5,-0.5C 162.528,1.58236 161.861,3.4157 160.5,5C 162.723,7.67104 164.89,7.83771 167,5.5C 167.309,6.76591 167.809,7.93257 168.5,9C 172.073,10.371 175.573,11.871 179,13.5C 181.084,8.27747 181.584,8.27747 180.5,13.5C 182.179,14.782 184.013,15.782 186,16.5C 187.972,12.0568 189.805,7.55679 191.5,3C 190.079,1.37713 188.412,0.210462 186.5,-0.5C 191.833,-0.5 197.167,-0.5 202.5,-0.5C 202.152,1.71279 201.319,3.71279 200,5.5C 197.315,2.78318 195.482,3.44984 194.5,7.5C 195.025,8.19238 195.692,8.69238 196.5,9C 194.01,9.49518 192.51,10.9952 192,13.5C 189.109,20.9498 185.942,28.2831 182.5,35.5C 182.709,36.086 183.043,36.586 183.5,37C 182.234,37.3095 181.067,37.8095 180,38.5C 178.193,42.7561 176.693,47.0894 175.5,51.5C 176.93,51.4208 178.264,51.7542 179.5,52.5C 180.192,51.9747 180.692,51.3081 181,50.5C 181.415,52.2909 182.415,53.6243 184,54.5C 188.069,51.1821 190.569,46.8488 191.5,41.5C 192.675,41.719 193.675,41.3857 194.5,40.5C 195.083,38.9984 195.916,37.6651 197,36.5C 197,35.1667 197,33.8333 197,32.5C 197.853,34.1247 198.853,34.4581 200,33.5C 208.1,22.283 215.933,10.9496 223.5,-0.5C 224.167,-0.5 224.833,-0.5 225.5,-0.5C 216.272,13.408 206.606,27.0746 196.5,40.5C 200.553,42.4551 204.553,45.1217 208.5,48.5C 208.5,48.8333 208.5,49.1667 208.5,49.5C 207.883,49.3893 207.383,49.056 207,48.5C 204.773,53.5683 204.106,53.235 205,47.5C 203.445,45.8542 201.779,45.5209 200,46.5C 198.429,45.7963 196.762,44.463 195,42.5C 191.119,46.5598 189.286,51.2264 189.5,56.5C 190.906,57.6682 192.072,57.3348 193,55.5C 193.284,57.8856 194.284,58.5523 196,57.5C 197.922,60.3909 200.422,61.3909 203.5,60.5C 203.167,61.8333 202.833,63.1667 202.5,64.5C 197.76,62.2476 192.927,59.9143 188,57.5C 185.174,60.27 184.341,63.4366 185.5,67C 187.397,68.1097 189.23,68.2764 191,67.5C 192.603,69.6564 194.77,70.9898 197.5,71.5C 198.192,70.9747 198.692,70.3081 199,69.5C 199.21,71.0581 199.71,72.3915 200.5,73.5C 201.167,74.8333 202.167,75.8333 203.5,76.5C 202.238,76.9066 200.905,77.24 199.5,77.5C 197.198,83.4402 194.531,89.1068 191.5,94.5C 190.833,94.5 190.167,94.5 189.5,94.5C 189.688,90.9359 190.688,87.6026 192.5,84.5C 192.291,83.914 191.957,83.414 191.5,83C 193.679,82.5581 194.345,81.5581 193.5,80C 194.872,78.7581 195.872,77.2581 196.5,75.5C 192.034,73.4012 187.534,71.4012 183,69.5C 181.744,71.7543 180.577,74.0877 179.5,76.5C 180.381,77.9705 181.714,78.8038 183.5,79C 181.888,79.7203 180.388,79.5536 179,78.5C 177.443,81.172 176.276,84.0053 175.5,87C 176.444,88.4768 177.777,89.4768 179.5,90C 179.272,90.3988 178.938,90.5654 178.5,90.5C 160.071,84.6193 142.071,77.6193 124.5,69.5C 124.56,68.9569 124.893,68.6236 125.5,68.5C 128.727,69.9094 132.06,70.9094 135.5,71.5C 136.803,65.4239 138.803,59.5906 141.5,54C 139.975,52.9914 138.308,52.4914 136.5,52.5C 136.649,53.552 136.483,54.552 136,55.5C 134.928,52.6415 133.428,50.6415 131.5,49.5C 130.808,50.0253 130.308,50.6919 130,51.5C 128.315,47.9318 125.481,46.4318 121.5,47C 119.407,52.4451 117.407,57.9451 115.5,63.5C 115.709,64.086 116.043,64.586 116.5,65C 115.263,65.2321 114.263,65.7321 113.5,66.5C 111.983,66.5106 110.816,67.1772 110,68.5C 108.729,71.4844 107.562,74.4844 106.5,77.5C 103.612,77.2196 102.112,78.5529 102,81.5C 101.682,79.9391 100.849,78.7724 99.5,78C 100.5,77.6667 101.5,77.3333 102.5,77C 100.12,75.6474 97.6198,74.4808 95,73.5C 94.0546,73.9054 93.3879,74.572 93,75.5C 92.6905,74.2341 92.1905,73.0674 91.5,72C 87.9009,70.6906 84.4009,69.1906 81,67.5C 80,69.1667 79,70.8333 78,72.5C 77.376,70.5355 77.876,68.8689 79.5,67.5C 77.3683,66.4016 75.2016,65.4016 73,64.5C 70.7242,68.8758 68.5575,73.7091 66.5,79C 67.7441,79.4561 68.5774,78.9561 69,77.5C 69.3095,78.7659 69.8095,79.9326 70.5,81C 68.925,80.621 67.425,80.7877 66,81.5C 65.187,83.4357 64.687,85.4357 64.5,87.5C 66.451,87.7733 67.951,87.1066 69,85.5C 69.8661,89.8065 70.8661,90.1399 72,86.5C 72.49,87.7932 72.6567,89.1266 72.5,90.5C 74.677,90.5861 76.677,91.2528 78.5,92.5C 79.1924,91.9747 79.6924,91.3081 80,90.5C 80.3742,91.4162 80.8742,92.2496 81.5,93C 86.9875,94.8823 92.3209,97.049 97.5,99.5C 97.1667,99.8333 96.8333,100.167 96.5,100.5C 88.6691,97.223 80.6691,94.5564 72.5,92.5C 72.33,93.8221 72.6634,94.9887 73.5,96C 71.4473,96.3247 69.4473,95.9913 67.5,95C 69.2861,94.8038 70.6195,93.9705 71.5,92.5C 69.6505,90.4284 67.3171,89.0951 64.5,88.5C 62.706,90.6817 61.3727,93.1817 60.5,96C 71.9501,100.423 83.2834,104.923 94.5,109.5C 94.5,109.833 94.5,110.167 94.5,110.5C 83.2546,106.806 72.0879,102.806 61,98.5C 58.7795,100.647 57.6129,103.314 57.5,106.5C 69.0409,109.938 80.3742,113.938 91.5,118.5C 91.4431,119.609 91.1098,120.609 90.5,121.5C 87.3205,120.607 84.1538,119.607 81,118.5C 79.9895,118.892 79.4895,119.559 79.5,120.5C 74.8851,117.282 69.7185,114.948 64,113.5C 61.554,110.836 58.7207,109.836 55.5,110.5C 54.696,111.941 54.0294,113.441 53.5,115C 53.9054,115.945 54.572,116.612 55.5,117C 52.3543,117.11 51.3543,118.443 52.5,121C 50.9005,122.066 49.9005,123.566 49.5,125.5C 55.1969,128.122 61.0302,130.456 67,132.5C 68.9338,130.581 68.7671,129.081 66.5,128C 68.4594,126.316 68.4594,124.316 66.5,122C 68.2889,121.48 69.9556,121.813 71.5,123C 68.0569,123.221 67.7236,124.221 70.5,126C 68.987,128.454 69.6537,130.121 72.5,131C 71.1667,131.333 69.8333,131.667 68.5,132C 71.6154,134.976 74.7821,135.476 78,133.5C 78.8563,136.188 80.6896,137.854 83.5,138.5C 82.4783,139.354 81.6449,140.354 81,141.5C 80.5172,140.552 80.3505,139.552 80.5,138.5C 75.196,136.844 69.8627,135.177 64.5,133.5C 62.9501,134.732 61.2834,135.232 59.5,135C 60.9733,134.29 61.6399,133.124 61.5,131.5C 57.1704,130.668 53.0037,129.335 49,127.5C 47.5197,129.663 47.5197,131.663 49,133.5C 50.544,130.736 51.7107,130.903 52.5,134C 50.5594,134.743 48.7261,134.576 47,133.5C 46.6258,134.416 46.1258,135.25 45.5,136C 49.2299,138.023 53.0633,139.856 57,141.5C 57.805,139.099 58.6383,139.266 59.5,142C 66.3161,144.247 72.9827,146.747 79.5,149.5C 68.1162,147.207 56.9496,143.54 46,138.5C 44.4558,140.468 43.2891,142.635 42.5,145C 53.9389,149.42 65.2722,153.92 76.5,158.5C 76.5,158.833 76.5,159.167 76.5,159.5C 70.1268,157.362 63.4601,155.028 56.5,152.5C 55.7397,154.05 54.573,155.383 53,156.5C 53.1282,154.555 52.9615,152.722 52.5,151C 49.129,149.932 45.7957,148.765 42.5,147.5C 40.1296,149.688 39.4629,152.188 40.5,155C 35.8339,158.314 35.5006,161.981 39.5,166C 39.1667,166.167 38.8333,166.333 38.5,166.5C 37.8333,165.5 37.1667,164.5 36.5,163.5C 34.3472,165.929 33.6806,168.596 34.5,171.5C 37.8384,172.691 41.1718,173.525 44.5,174C 46.6624,168.85 48.829,163.684 51,158.5C 51.3742,159.416 51.8742,160.25 52.5,161C 51.6919,161.308 51.0253,161.808 50.5,162.5C 51.6651,163.584 52.9984,164.417 54.5,165C 53.1011,165.595 51.7678,165.428 50.5,164.5C 47.6862,172.281 44.6862,179.947 41.5,187.5C 41.7093,188.086 42.0426,188.586 42.5,189C 40.8071,190.713 39.4738,192.713 38.5,195C 39.7155,197.096 40.5488,196.929 41,194.5C 41.4828,195.448 41.6495,196.448 41.5,197.5C 40.1779,197.33 39.0113,197.663 38,198.5C 37.1853,200.623 36.1853,202.623 35,204.5C 34.2276,203.151 33.0609,202.318 31.5,202C 32.7932,201.51 34.1266,201.343 35.5,201.5C 37.859,193.59 40.5257,185.757 43.5,178C 43.3552,177.228 43.0219,176.561 42.5,176C 39.2397,175.025 36.073,173.858 33,172.5C 30.9987,174.802 30.4987,177.302 31.5,180C 29.741,181.008 28.5743,182.508 28,184.5C 26.2647,189.206 24.4313,193.873 22.5,198.5C 22.0431,199.298 21.3764,199.631 20.5,199.5C 19.209,199.737 18.209,199.404 17.5,198.5C 19.2675,195.249 19.9341,191.916 19.5,188.5C 17.618,190.693 17.118,190.027 18,186.5C 19.164,186.835 20.4974,186.835 22,186.5C 22.6946,184.278 23.5279,182.111 24.5,180C 20.6132,179.114 20.4465,176.948 24,173.5C 23.7374,174.951 23.9041,176.284 24.5,177.5C 25.8772,175.711 26.8772,173.711 27.5,171.5C 22.3863,168.194 16.8863,165.527 11,163.5C 10.0691,165.459 9.23574,167.459 8.5,169.5C 9.32496,170.386 10.325,170.719 11.5,170.5C 11.5,169.5 11.5,168.5 11.5,167.5C 15.8383,167.622 16.1716,167.955 12.5,168.5C 12.3601,170.124 13.0267,171.29 14.5,172C 12.1141,171.649 9.78079,171.815 7.5,172.5C 8.37598,173.251 9.37598,173.751 10.5,174C 5.6866,175.296 4.01993,178.296 5.5,183C 3.15299,184.872 1.15299,187.039 -0.5,189.5C -0.5,161.5 -0.5,133.5 -0.5,105.5C 2.09905,101.254 4.43238,96.7535 6.5,92C 6.3552,91.228 6.02186,90.5613 5.5,90C 3.48174,89.4954 1.48174,88.9954 -0.5,88.5C -0.5,87.8333 -0.5,87.1667 -0.5,86.5C 2.19218,87.0087 4.69218,88.0087 7,89.5C 9.77602,83.6147 12.276,77.6147 14.5,71.5C 9.64512,69.1047 4.64512,67.1047 -0.5,65.5C -0.5,58.1667 -0.5,50.8333 -0.5,43.5C 1.44121,43.8693 3.27454,44.536 5,45.5C 7.17858,41.7545 9.01191,37.4212 10.5,32.5C 11.1667,32.5 11.8333,32.5 12.5,32.5C 10.9131,37.2615 9.24641,41.5948 7.5,45.5C 9.71364,46.7733 12.047,47.7733 14.5,48.5C 15.19,47.512 16.3567,46.512 18,45.5C 18.6054,47.4812 19.6054,47.8146 21,46.5C 21.1667,46.8333 21.3333,47.1667 21.5,47.5C 16.3613,48.1967 16.1946,49.53 21,51.5C 23.3796,47.4064 25.2129,43.0731 26.5,38.5C 31.0361,38.1502 35.3694,38.8169 39.5,40.5C 39.4142,41.4959 39.7476,42.3292 40.5,43C 39.175,42.8516 38.0084,43.0183 37,43.5C 35.8333,47 34.6667,50.5 33.5,54C 34.0319,56.0197 35.3652,56.853 37.5,56.5C 37.3505,55.448 37.5172,54.448 38,53.5C 38.2734,55.1012 38.7734,56.6012 39.5,58C 41.8884,58.3034 44.0551,59.1367 46,60.5C 47.6016,58.7373 48.1016,56.904 47.5,55C 49.1929,53.287 50.5262,51.287 51.5,49C 50.3961,47.8687 50.7295,47.0354 52.5,46.5C 53.5779,48.4747 53.2446,50.308 51.5,52C 53.9011,52.805 53.7344,53.6383 51,54.5C 50.0296,56.2738 49.1963,58.1072 48.5,60C 53.388,63.1452 58.7214,65.6452 64.5,67.5C 67.2033,63.0825 69.5366,58.4158 71.5,53.5C 71.8333,53.8333 72.1667,54.1667 72.5,54.5C 70.6371,58.755 68.9704,63.0883 67.5,67.5C 67.8333,67.8333 68.1667,68.1667 68.5,68.5C 70.6904,63.2651 72.6904,57.9318 74.5,52.5C 76.0618,52.2671 77.3951,51.6005 78.5,50.5C 83.6202,53.0598 88.9536,55.0598 94.5,56.5C 94.7135,54.8561 94.3802,53.3561 93.5,52C 95.9148,50.8089 97.2481,48.8089 97.5,46C 97.2409,44.7387 96.5742,43.7387 95.5,43C 96.4491,42.3828 97.2825,42.5494 98,43.5C 98.8333,41.8333 99.6667,40.1667 100.5,38.5C 95.1367,35.6522 89.47,33.6522 83.5,32.5C 82.7101,31.2058 81.7101,30.0391 80.5,29C 55.287,19.9515 30.287,10.4515 5.5,0.5 Z"/></g>
<g><path style="opacity:1" fill="#323232" d="M 24.5,-0.5 C 30.8333,-0.5 37.1667,-0.5 43.5,-0.5C 43.1193,0.931117 42.1193,1.76445 40.5,2C 41.3081,2.30762 41.9747,2.80762 42.5,3.5C 41.3906,5.38533 40.5573,7.38533 40,9.5C 39.4387,10.0219 38.772,10.3552 38,10.5C 32.7758,8.47128 27.6092,6.30461 22.5,4C 23.5822,2.67028 24.2488,1.17028 24.5,-0.5 Z"/></g>
<g><path style="opacity:1" fill="#323232" d="M 47.5,-0.5 C 54.8333,-0.5 62.1667,-0.5 69.5,-0.5C 67.1514,6.38109 64.3181,13.0478 61,19.5C 55.0105,16.6134 48.8439,14.1134 42.5,12C 43.1667,10.6667 44.1667,9.66667 45.5,9C 45.3602,7.40293 45.3602,5.90293 45.5,4.5C 46.5622,3.22993 47.5622,2.06326 48.5,1C 47.944,0.617425 47.6107,0.117425 47.5,-0.5 Z"/></g>
<g><path style="opacity:1" fill="#323232" d="M 71.5,-0.5 C 73.8333,-0.5 76.1667,-0.5 78.5,-0.5C 78.1961,0.14987 77.8627,0.816537 77.5,1.5C 78.7185,1.10897 79.5518,1.77564 80,3.5C 80.4828,2.55198 80.6495,1.55198 80.5,0.5C 83.3128,0.548065 85.9795,1.21473 88.5,2.5C 89.0522,4.0026 89.0522,5.66927 88.5,7.5C 87.448,7.35055 86.448,7.51722 85.5,8C 87.6455,10.4686 86.9788,12.4686 83.5,14C 83.9574,14.414 84.2907,14.914 84.5,15.5C 83.3349,16.5836 82.0016,17.4169 80.5,18C 83.6677,18.5823 84.001,19.5823 81.5,21C 82.1383,22.7067 82.1383,24.54 81.5,26.5C 78.8333,25.8333 76.1667,25.1667 73.5,24.5C 73.6534,18.6761 72.9867,18.3428 71.5,23.5C 68.7105,22.352 66.0439,21.0186 63.5,19.5C 64.1936,16.9124 65.3602,14.579 67,12.5C 69.015,13.8423 71.1817,14.3423 73.5,14C 72.1667,13 70.8333,12 69.5,11C 70.1667,10.6667 70.8333,10.3333 71.5,10C 67.7009,8.44711 67.7009,7.11378 71.5,6C 68.8333,5 68.8333,4 71.5,3C 70.8288,2.01381 70.8288,0.847141 71.5,-0.5 Z"/></g>
<g><path style="opacity:1" fill="#323232" d="M 94.5,-0.5 C 101.167,-0.5 107.833,-0.5 114.5,-0.5C 111.693,7.25546 108.693,14.9221 105.5,22.5C 102.885,22.1443 101.052,20.811 100,18.5C 96.8027,19.3366 93.8027,18.67 91,16.5C 91.3052,13.5091 91.9719,10.5091 93,7.5C 94.3204,7.201 95.8204,7.03434 97.5,7C 96.1667,6.33333 94.8333,5.66667 93.5,5C 94.4061,3.30054 94.7394,1.4672 94.5,-0.5 Z"/></g>
<g><path style="opacity:1" fill="#323232" d="M 162.5,-0.5 C 170.5,-0.5 178.5,-0.5 186.5,-0.5C 188.412,0.210462 190.079,1.37713 191.5,3C 189.805,7.55679 187.972,12.0568 186,16.5C 184.013,15.782 182.179,14.782 180.5,13.5C 181.584,8.27747 181.084,8.27747 179,13.5C 175.573,11.871 172.073,10.371 168.5,9C 167.809,7.93257 167.309,6.76591 167,5.5C 164.89,7.83771 162.723,7.67104 160.5,5C 161.861,3.4157 162.528,1.58236 162.5,-0.5 Z"/></g>
<g><path style="opacity:1" fill="#323232" d="M 225.5,-0.5 C 235.5,-0.5 245.5,-0.5 255.5,-0.5C 255.5,21.8333 255.5,44.1667 255.5,66.5C 252.188,65.1796 248.855,63.8462 245.5,62.5C 244.723,57.7583 245.223,53.0916 247,48.5C 249.045,47.1131 251.212,45.9464 253.5,45C 252.167,45 250.833,45 249.5,45C 250.801,41.7308 252.467,38.7308 254.5,36C 253.427,34.7496 253.427,33.4162 254.5,32C 249.413,28.3737 244.246,24.8737 239,21.5C 238.667,21.8333 238.333,22.1667 238,22.5C 237.184,21.1772 236.017,20.5106 234.5,20.5C 234.047,19.5416 233.381,18.7083 232.5,18C 236.361,12.9722 240.028,7.80557 243.5,2.5C 243.167,2.16667 242.833,1.83333 242.5,1.5C 238.479,6.90139 234.479,12.2347 230.5,17.5C 226.53,22.0836 223.03,27.0836 220,32.5C 219.097,33.7014 217.931,34.5348 216.5,35C 216.957,35.414 217.291,35.914 217.5,36.5C 215.448,39.5355 213.448,42.5355 211.5,45.5C 210.833,46.8333 209.833,47.8333 208.5,48.5C 204.553,45.1217 200.553,42.4551 196.5,40.5C 206.606,27.0746 216.272,13.408 225.5,-0.5 Z"/></g>
<g><path style="opacity:1" fill="#323232" d="M -0.5,-0.5 C 1.5,-0.5 3.5,-0.5 5.5,-0.5C 5.5,-0.166667 5.5,0.166667 5.5,0.5C 4.22671,1.07683 4.22671,1.7435 5.5,2.5C 10.3496,4.32989 15.0163,6.32989 19.5,8.5C 18.0541,13.3931 16.0541,18.0598 13.5,22.5C 13.2178,19.9433 13.0511,17.2766 13,14.5C 12.9747,16.8976 12.1413,19.2309 10.5,21.5C 6.92049,19.8746 3.25382,18.5413 -0.5,17.5C -0.5,11.5 -0.5,5.5 -0.5,-0.5 Z"/></g>
<g><path style="opacity:1" fill="#323232" d="M 116.5,-0.5 C 122.5,-0.5 128.5,-0.5 134.5,-0.5C 134.67,0.822066 134.337,1.98873 133.5,3C 131.874,2.80471 130.207,2.80471 128.5,3C 134.826,4.37675 134.826,6.04341 128.5,8C 132.092,9.27547 132.092,10.9421 128.5,13C 128.957,13.414 129.291,13.914 129.5,14.5C 128.271,15.2811 126.938,15.7811 125.5,16C 129.335,17.7313 129.002,19.0646 124.5,20C 127.167,21.6667 127.167,23.3333 124.5,25C 124.833,25.3333 125.167,25.6667 125.5,26C 124.809,27.0674 124.309,28.2341 124,29.5C 123.586,29.0426 123.086,28.7093 122.5,28.5C 118.859,29.8121 119.193,30.9788 123.5,32C 121.804,34.5875 120.804,37.4208 120.5,40.5C 114.574,39.3021 108.908,37.3021 103.5,34.5C 104.074,32.9411 104.74,31.4411 105.5,30C 107.5,30 109.5,30 111.5,30C 109.975,28.9914 108.308,28.4914 106.5,28.5C 109.195,18.219 112.528,8.55235 116.5,-0.5 Z"/></g>
<g><path style="opacity:1" fill="#303030" d="M 19.5,8.5 C 19.8333,8.5 20.1667,8.5 20.5,8.5C 20.0338,10.2012 20.0338,11.7012 20.5,13C 17.967,15.084 17.967,17.084 20.5,19C 18.1144,19.2835 17.4477,20.2835 18.5,22C 16.203,23.1597 16.5363,24.1597 19.5,25C 22.9711,26.8253 26.6378,27.8253 30.5,28C 31.3995,25.8083 32.3995,23.6416 33.5,21.5C 33.2907,20.914 32.9574,20.414 32.5,20C 34.0759,18.287 35.7426,16.787 37.5,15.5C 38.9587,15.4326 40.2921,15.7659 41.5,16.5C 40.8466,17.8068 40.1799,19.1401 39.5,20.5C 40.5,21.3333 41.5,22.1667 42.5,23C 41.451,23.4922 40.451,23.3256 39.5,22.5C 37.2051,25.8815 36.0384,29.5482 36,33.5C 38.8532,36.0367 42.0199,36.87 45.5,36C 49.3718,37.2625 52.3718,38.7625 54.5,40.5C 56.3651,34.9034 58.0318,29.2368 59.5,23.5C 60.4916,23.3284 61.1583,23.6618 61.5,24.5C 60.6011,27.0279 59.6011,29.5279 58.5,32C 59.8333,32.3333 61.1667,32.6667 62.5,33C 60.8988,33.2734 59.3988,33.7734 58,34.5C 57.4427,36.6147 56.6094,38.6147 55.5,40.5C 55.7093,41.086 56.0426,41.586 56.5,42C 61.7932,44.2644 67.1266,46.4311 72.5,48.5C 73.2766,46.2188 74.2766,44.0521 75.5,42C 74.5,41.6667 73.5,41.3333 72.5,41C 74.0441,40.7104 75.3774,40.0437 76.5,39C 75.8333,38.6667 75.1667,38.3333 74.5,38C 77.6677,37.4177 78.001,36.4177 75.5,35C 76.448,34.5172 77.448,34.3505 78.5,34.5C 78.2627,33.209 78.596,32.209 79.5,31.5C 80.8799,31.9623 81.5466,32.9623 81.5,34.5C 80.1833,39.953 78.1833,45.1197 75.5,50C 74.5,50.1667 73.5,50.3333 72.5,50.5C 60.4065,46.3014 48.4065,41.8014 36.5,37C 33.5,36.6667 30.5,36.3333 27.5,36C 18.1658,32.3901 8.83244,28.8901 -0.5,25.5C -0.5,22.8333 -0.5,20.1667 -0.5,17.5C 3.25382,18.5413 6.92049,19.8746 10.5,21.5C 12.1413,19.2309 12.9747,16.8976 13,14.5C 13.0511,17.2766 13.2178,19.9433 13.5,22.5C 16.0541,18.0598 18.0541,13.3931 19.5,8.5 Z"/></g>
<g><path style="opacity:1" fill="#323232" d="M 20.5,8.5 C 26.3485,10.5973 32.0152,12.9306 37.5,15.5C 35.7426,16.787 34.0759,18.287 32.5,20C 32.9574,20.414 33.2907,20.914 33.5,21.5C 32.3995,23.6416 31.3995,25.8083 30.5,28C 26.6378,27.8253 22.9711,26.8253 19.5,25C 16.5363,24.1597 16.203,23.1597 18.5,22C 17.4477,20.2835 18.1144,19.2835 20.5,19C 17.967,17.084 17.967,15.084 20.5,13C 20.0338,11.7012 20.0338,10.2012 20.5,8.5 Z"/></g>
<g><path style="opacity:1" fill="#323232" d="M 202.5,-0.5 C 209.5,-0.5 216.5,-0.5 223.5,-0.5C 215.933,10.9496 208.1,22.283 200,33.5C 198.853,34.4581 197.853,34.1247 197,32.5C 197,33.8333 197,35.1667 197,36.5C 195.916,37.6651 195.083,38.9984 194.5,40.5C 193.675,41.3857 192.675,41.719 191.5,41.5C 190.569,46.8488 188.069,51.1821 184,54.5C 182.415,53.6243 181.415,52.2909 181,50.5C 180.692,51.3081 180.192,51.9747 179.5,52.5C 178.264,51.7542 176.93,51.4208 175.5,51.5C 176.693,47.0894 178.193,42.7561 180,38.5C 181.067,37.8095 182.234,37.3095 183.5,37C 183.043,36.586 182.709,36.086 182.5,35.5C 185.942,28.2831 189.109,20.9498 192,13.5C 192.51,10.9952 194.01,9.49518 196.5,9C 195.692,8.69238 195.025,8.19238 194.5,7.5C 195.482,3.44984 197.315,2.78318 200,5.5C 201.319,3.71279 202.152,1.71279 202.5,-0.5 Z"/></g>
<g><path style="opacity:1" fill="#323232" d="M 138.5,0.5 C 141.132,1.32669 143.798,2.16003 146.5,3C 147.362,5.73439 148.195,5.90106 149,3.5C 151.835,4.41951 154.668,5.41951 157.5,6.5C 158.052,8.0026 158.052,9.66927 157.5,11.5C 154.402,11.4125 154.068,11.9125 156.5,13C 155.87,14.892 154.87,16.5587 153.5,18C 154.299,19.7487 153.632,21.082 151.5,22C 151.835,23.5026 151.835,24.836 151.5,26C 150.167,26.3333 148.833,26.6667 147.5,27C 150.668,27.5823 151.001,28.5823 148.5,30C 149.833,31 149.833,32 148.5,33C 142.614,32.9321 138.114,30.4321 135,25.5C 131.978,26.3311 130.478,24.9978 130.5,21.5C 135.041,21.6691 135.374,21.0025 131.5,19.5C 132.376,18.7492 133.376,18.2492 134.5,18C 131.999,16.5823 132.332,15.5823 135.5,15C 133.224,13.1257 133.557,11.4591 136.5,10C 135.354,7.44285 136.354,6.10952 139.5,6C 138.572,5.61211 137.905,4.94544 137.5,4C 137.989,2.86151 138.322,1.69484 138.5,0.5 Z"/></g>
<g><path style="opacity:1" fill="#333333" d="M 41.5,16.5 C 47.5049,18.8347 53.5049,21.168 59.5,23.5C 58.0318,29.2368 56.3651,34.9034 54.5,40.5C 52.3718,38.7625 49.3718,37.2625 45.5,36C 42.0199,36.87 38.8532,36.0367 36,33.5C 36.0384,29.5482 37.2051,25.8815 39.5,22.5C 40.451,23.3256 41.451,23.4922 42.5,23C 41.5,22.1667 40.5,21.3333 39.5,20.5C 40.1799,19.1401 40.8466,17.8068 41.5,16.5 Z"/></g>
<g><path style="opacity:1" fill="#2f2f2f" d="M 230.5,17.5 C 230.703,19.0443 231.37,20.3777 232.5,21.5C 232.376,22.1067 232.043,22.44 231.5,22.5C 225.822,29.1894 221.155,36.5227 217.5,44.5C 215.379,44.3253 213.379,44.6586 211.5,45.5C 213.448,42.5355 215.448,39.5355 217.5,36.5C 217.291,35.914 216.957,35.414 216.5,35C 217.931,34.5348 219.097,33.7014 220,32.5C 223.03,27.0836 226.53,22.0836 230.5,17.5 Z"/></g>
<g><path style="opacity:1" fill="#303030" d="M 234.5,20.5 C 236.017,20.5106 237.184,21.1772 238,22.5C 238.333,22.1667 238.667,21.8333 239,21.5C 244.246,24.8737 249.413,28.3737 254.5,32C 253.427,33.4162 253.427,34.7496 254.5,36C 252.467,38.7308 250.801,41.7308 249.5,45C 250.833,45 252.167,45 253.5,45C 251.212,45.9464 249.045,47.1131 247,48.5C 245.223,53.0916 244.723,57.7583 245.5,62.5C 248.855,63.8462 252.188,65.1796 255.5,66.5C 255.5,67.1667 255.5,67.8333 255.5,68.5C 251.521,66.6657 247.521,65.1657 243.5,64C 241.604,71.5853 238.937,79.0853 235.5,86.5C 234.508,86.6716 233.842,86.3382 233.5,85.5C 234.733,81.9679 236.067,78.4679 237.5,75C 235.068,73.9125 235.402,73.4125 238.5,73.5C 239.484,70.1881 240.484,66.8548 241.5,63.5C 240.451,61.8877 238.951,60.8877 237,60.5C 234.798,63.7355 232.964,67.2355 231.5,71C 233.932,72.0875 233.598,72.5875 230.5,72.5C 229.301,76.0986 228.301,79.7653 227.5,83.5C 226.508,83.6716 225.842,83.3382 225.5,82.5C 227.087,77.7385 228.754,73.4052 230.5,69.5C 231.833,66.1667 233.167,62.8333 234.5,59.5C 232.993,58.2612 231.826,58.5946 231,60.5C 229.07,58.081 229.403,56.4144 232,55.5C 232.689,56.3567 233.522,57.0233 234.5,57.5C 235.575,55.0977 236.742,52.7644 238,50.5C 237.997,52.8557 237.497,55.1891 236.5,57.5C 238.422,58.711 240.255,60.0443 242,61.5C 243.076,57.8976 243.91,54.231 244.5,50.5C 244.291,49.914 243.957,49.414 243.5,49C 248.276,44.793 251.276,39.4596 252.5,33C 250.968,30.8829 248.968,29.2162 246.5,28C 241.912,26.1874 237.912,24.3541 234.5,22.5C 234.5,21.8333 234.5,21.1667 234.5,20.5 Z"/></g>
<g><path style="opacity:1" fill="#333333" d="M 231.5,22.5 C 228.679,29.4787 225.846,36.4787 223,43.5C 221.322,45.5532 219.489,45.8866 217.5,44.5C 221.155,36.5227 225.822,29.1894 231.5,22.5 Z"/></g>
<g><path style="opacity:1" fill="#323232" d="M 61.5,24.5 C 67.7795,26.3138 73.7795,28.6472 79.5,31.5C 78.596,32.209 78.2627,33.209 78.5,34.5C 77.448,34.3505 76.448,34.5172 75.5,35C 78.001,36.4177 77.6677,37.4177 74.5,38C 75.1667,38.3333 75.8333,38.6667 76.5,39C 75.3774,40.0437 74.0441,40.7104 72.5,41C 73.5,41.3333 74.5,41.6667 75.5,42C 74.2766,44.0521 73.2766,46.2188 72.5,48.5C 67.1266,46.4311 61.7932,44.2644 56.5,42C 56.0426,41.586 55.7093,41.086 55.5,40.5C 56.6094,38.6147 57.4427,36.6147 58,34.5C 59.3988,33.7734 60.8988,33.2734 62.5,33C 61.1667,32.6667 59.8333,32.3333 58.5,32C 59.6011,29.5279 60.6011,27.0279 61.5,24.5 Z"/></g>
<g><path style="opacity:1" fill="#323232" d="M 234.5,22.5 C 237.912,24.3541 241.912,26.1874 246.5,28C 248.968,29.2162 250.968,30.8829 252.5,33C 251.276,39.4596 248.276,44.793 243.5,49C 243.957,49.414 244.291,49.914 244.5,50.5C 243.91,54.231 243.076,57.8976 242,61.5C 240.255,60.0443 238.422,58.711 236.5,57.5C 237.497,55.1891 237.997,52.8557 238,50.5C 236.742,52.7644 235.575,55.0977 234.5,57.5C 233.522,57.0233 232.689,56.3567 232,55.5C 229.403,56.4144 229.07,58.081 231,60.5C 231.826,58.5946 232.993,58.2612 234.5,59.5C 233.167,62.8333 231.833,66.1667 230.5,69.5C 228.754,73.4052 227.087,77.7385 225.5,82.5C 217.683,80.1748 210.183,77.1748 203,73.5C 202.833,72.6667 202.667,71.8333 202.5,71C 204.602,64.0267 207.102,57.1934 210,50.5C 211.167,49.3333 212.333,48.1667 213.5,47C 216.46,47.3201 219.46,47.3201 222.5,47C 223.333,46.1667 224.167,45.3333 225,44.5C 227.906,37.0243 231.073,29.691 234.5,22.5 Z"/></g>
<g><path style="opacity:1" fill="#323232" d="M 129.5,25.5 C 134.716,30.2772 140.716,33.7772 147.5,36C 145.535,40.1715 143.868,44.5048 142.5,49C 138.052,48.454 133.719,47.2873 129.5,45.5C 129.587,42.4017 129.087,42.0684 128,44.5C 125.877,44.034 124.377,42.8673 123.5,41C 125.41,35.7654 127.41,30.5987 129.5,25.5 Z"/></g>
<g><path style="opacity:1" fill="#323232" d="M 160.5,7.5 C 168.433,11.2655 176.766,14.9321 185.5,18.5C 183.374,22.7109 181.541,27.0442 180,31.5C 178.951,30.4829 177.784,30.3162 176.5,31C 180.547,33.2774 180.214,34.944 175.5,36C 176.022,36.5613 176.355,37.228 176.5,38C 175.123,41.967 173.456,45.8003 171.5,49.5C 169.566,49.0995 168.066,48.0995 167,46.5C 166.667,46.8333 166.333,47.1667 166,47.5C 163.418,46.7161 161.751,45.0495 161,42.5C 159.609,44.7151 157.943,44.7151 156,42.5C 156,40.5 156,38.5 156,36.5C 155.228,37.8491 154.061,38.6824 152.5,39C 153.956,39.4226 154.456,40.2559 154,41.5C 152.013,40.782 150.179,39.782 148.5,38.5C 150.468,33.573 152.134,28.573 153.5,23.5C 156.598,23.5875 156.932,23.0875 154.5,22C 155.337,20.9887 155.67,19.8221 155.5,18.5C 158.598,18.5875 158.932,18.0875 156.5,17C 157.739,13.7806 159.072,10.6139 160.5,7.5 Z"/></g>
<g><path style="opacity:1" fill="#333333" d="M -0.5,27.5 C 3.49701,28.6027 7.16368,30.2694 10.5,32.5C 9.01191,37.4212 7.17858,41.7545 5,45.5C 3.27454,44.536 1.44121,43.8693 -0.5,43.5C -0.5,38.1667 -0.5,32.8333 -0.5,27.5 Z"/></g>
<g><path style="opacity:1" fill="#323232" d="M 12.5,32.5 C 17.4626,33.9858 22.1293,35.9858 26.5,38.5C 25.2129,43.0731 23.3796,47.4064 21,51.5C 16.1946,49.53 16.3613,48.1967 21.5,47.5C 21.3333,47.1667 21.1667,46.8333 21,46.5C 19.6054,47.8146 18.6054,47.4812 18,45.5C 16.3567,46.512 15.19,47.512 14.5,48.5C 12.047,47.7733 9.71364,46.7733 7.5,45.5C 9.24641,41.5948 10.9131,37.2615 12.5,32.5 Z"/></g>
<g><path style="opacity:1" fill="#323232" d="M 83.5,32.5 C 89.47,33.6522 95.1367,35.6522 100.5,38.5C 99.6667,40.1667 98.8333,41.8333 98,43.5C 97.2825,42.5494 96.4491,42.3828 95.5,43C 96.5742,43.7387 97.2409,44.7387 97.5,46C 97.2481,48.8089 95.9148,50.8089 93.5,52C 94.3802,53.3561 94.7135,54.8561 94.5,56.5C 88.9536,55.0598 83.6202,53.0598 78.5,50.5C 80.7609,44.6508 82.4275,38.6508 83.5,32.5 Z"/></g>
<g><path style="opacity:1" fill="#494949" d="M 5.5,0.5 C 30.287,10.4515 55.287,19.9515 80.5,29C 81.7101,30.0391 82.7101,31.2058 83.5,32.5C 82.4275,38.6508 80.7609,44.6508 78.5,50.5C 77.3951,51.6005 76.0618,52.2671 74.5,52.5C 71.7294,52.5793 69.0627,52.0793 66.5,51C 57.5832,47.1961 48.5832,43.6961 39.5,40.5C 35.3694,38.8169 31.0361,38.1502 26.5,38.5C 22.1293,35.9858 17.4626,33.9858 12.5,32.5C 11.8333,32.5 11.1667,32.5 10.5,32.5C 7.16368,30.2694 3.49701,28.6027 -0.5,27.5C -0.5,26.8333 -0.5,26.1667 -0.5,25.5C 8.83244,28.8901 18.1658,32.3901 27.5,36C 30.5,36.3333 33.5,36.6667 36.5,37C 48.4065,41.8014 60.4065,46.3014 72.5,50.5C 73.5,50.3333 74.5,50.1667 75.5,50C 78.1833,45.1197 80.1833,39.953 81.5,34.5C 81.5466,32.9623 80.8799,31.9623 79.5,31.5C 73.7795,28.6472 67.7795,26.3138 61.5,24.5C 61.1583,23.6618 60.4916,23.3284 59.5,23.5C 53.5049,21.168 47.5049,18.8347 41.5,16.5C 40.2921,15.7659 38.9587,15.4326 37.5,15.5C 32.0152,12.9306 26.3485,10.5973 20.5,8.5C 20.1667,8.5 19.8333,8.5 19.5,8.5C 15.0163,6.32989 10.3496,4.32989 5.5,2.5C 4.22671,1.7435 4.22671,1.07683 5.5,0.5 Z"/></g>
<g><path style="opacity:1" fill="#323232" d="M 101.5,38.5 C 107.386,40.1103 113.053,42.277 118.5,45C 116.819,51.3138 114.152,57.4805 110.5,63.5C 108.866,63.032 107.7,62.032 107,60.5C 102.793,60.8401 98.9596,59.5067 95.5,56.5C 98.0804,50.6773 100.08,44.6773 101.5,38.5 Z"/></g>
<g><path style="opacity:1" fill="#323232" d="M 147.5,40.5 C 152.193,41.1107 155.693,43.444 158,47.5C 158.561,46.9781 159.228,46.6448 160,46.5C 163.592,48.0464 167.092,49.7131 170.5,51.5C 168.922,52.2978 167.256,52.7978 165.5,53C 166.793,53.49 168.127,53.6567 169.5,53.5C 169.553,56.0606 168.553,58.0606 166.5,59.5C 161.683,57.5904 157.016,55.4237 152.5,53C 153.451,52.2825 153.617,51.4491 153,50.5C 152.085,51.3279 151.419,52.3279 151,53.5C 148.411,52.792 146.245,51.4587 144.5,49.5C 145.705,46.5504 146.705,43.5504 147.5,40.5 Z"/></g>
<g><path style="opacity:1" fill="#323232" d="M 208.5,49.5 C 207.011,53.3233 205.344,56.99 203.5,60.5C 200.422,61.3909 197.922,60.3909 196,57.5C 194.284,58.5523 193.284,57.8856 193,55.5C 192.072,57.3348 190.906,57.6682 189.5,56.5C 189.286,51.2264 191.119,46.5598 195,42.5C 196.762,44.463 198.429,45.7963 200,46.5C 201.779,45.5209 203.445,45.8542 205,47.5C 204.106,53.235 204.773,53.5683 207,48.5C 207.383,49.056 207.883,49.3893 208.5,49.5 Z"/></g>
<g><path style="opacity:1" fill="#323232" d="M 39.5,40.5 C 48.5832,43.6961 57.5832,47.1961 66.5,51C 69.0627,52.0793 71.7294,52.5793 74.5,52.5C 72.6904,57.9318 70.6904,63.2651 68.5,68.5C 68.1667,68.1667 67.8333,67.8333 67.5,67.5C 68.9704,63.0883 70.6371,58.755 72.5,54.5C 72.1667,54.1667 71.8333,53.8333 71.5,53.5C 69.5366,58.4158 67.2033,63.0825 64.5,67.5C 58.7214,65.6452 53.388,63.1452 48.5,60C 49.1963,58.1072 50.0296,56.2738 51,54.5C 53.7344,53.6383 53.9011,52.805 51.5,52C 53.2446,50.308 53.5779,48.4747 52.5,46.5C 50.7295,47.0354 50.3961,47.8687 51.5,49C 50.5262,51.287 49.1929,53.287 47.5,55C 48.1016,56.904 47.6016,58.7373 46,60.5C 44.0551,59.1367 41.8884,58.3034 39.5,58C 38.7734,56.6012 38.2734,55.1012 38,53.5C 37.5172,54.448 37.3505,55.448 37.5,56.5C 35.3652,56.853 34.0319,56.0197 33.5,54C 34.6667,50.5 35.8333,47 37,43.5C 38.0084,43.0183 39.175,42.8516 40.5,43C 39.7476,42.3292 39.4142,41.4959 39.5,40.5 Z"/></g>
<g><path style="opacity:1" fill="#323232" d="M 124.5,69.5 C 121.079,67.6243 117.412,66.6243 113.5,66.5C 114.263,65.7321 115.263,65.2321 116.5,65C 116.043,64.586 115.709,64.086 115.5,63.5C 117.407,57.9451 119.407,52.4451 121.5,47C 125.481,46.4318 128.315,47.9318 130,51.5C 130.308,50.6919 130.808,50.0253 131.5,49.5C 133.428,50.6415 134.928,52.6415 136,55.5C 136.483,54.552 136.649,53.552 136.5,52.5C 138.308,52.4914 139.975,52.9914 141.5,54C 138.803,59.5906 136.803,65.4239 135.5,71.5C 132.06,70.9094 128.727,69.9094 125.5,68.5C 124.893,68.6236 124.56,68.9569 124.5,69.5 Z"/></g>
<g><path style="opacity:1" fill="#323232" d="M 6.5,47.5 C 7.70792,48.2341 9.04125,48.5674 10.5,48.5C 10.3287,51.7973 10.9954,52.1306 12.5,49.5C 15.5014,50.5427 18.1681,52.0427 20.5,54C 18.8555,55.032 18.5221,56.1987 19.5,57.5C 17.6155,58.1973 17.2822,59.1973 18.5,60.5C 17.3333,63.5 16.1667,66.5 15,69.5C 10.8104,67.9358 6.64371,66.2691 2.5,64.5C 2.54413,58.664 3.87747,52.9973 6.5,47.5 Z"/></g>
<g><path style="opacity:1" fill="#323232" d="M 142.5,54.5 C 147.908,56.0331 153.241,57.8664 158.5,60C 159.849,60.7724 160.682,61.9391 161,63.5C 161.677,61.311 162.844,60.9776 164.5,62.5C 165.614,63.723 165.781,65.0563 165,66.5C 162.928,71.551 160.762,76.551 158.5,81.5C 151.361,78.232 144.028,75.5654 136.5,73.5C 136.907,70.1869 138.241,67.3536 140.5,65C 139.05,61.8985 140.05,59.8985 143.5,59C 142.692,58.6924 142.025,58.1924 141.5,57.5C 142.127,56.5832 142.461,55.5832 142.5,54.5 Z"/></g>
<g><path style="opacity:1" fill="#323232" d="M 174.5,52.5 C 177.876,54.8476 181.376,56.1809 185,56.5C 184.545,59.6846 183.379,62.6846 181.5,65.5C 177.926,63.9352 174.593,62.1019 171.5,60C 172.214,57.3516 173.214,54.8516 174.5,52.5 Z"/></g>
<g><path style="opacity:1" fill="#323232" d="M 29.5,56.5 C 32.3402,56.807 33.1735,58.1403 32,60.5C 32.8333,59.5 33.6667,58.5 34.5,57.5C 38.049,59.2378 41.7157,60.5711 45.5,61.5C 45.1667,63.5 44.8333,65.5 44.5,67.5C 41.2027,67.3287 40.8694,67.9954 43.5,69.5C 42.4314,72.5394 41.2647,75.5394 40,78.5C 38.324,77.9389 36.9906,76.9389 36,75.5C 35.586,75.9574 35.086,76.2907 34.5,76.5C 31.6181,75.0392 28.6181,73.8725 25.5,73C 24.9781,72.4387 24.6448,71.772 24.5,71C 26.0793,66.0941 27.746,61.2608 29.5,56.5 Z"/></g>
<g><path style="opacity:1" fill="#323232" d="M 202.5,64.5 C 200.874,67.2457 200.207,70.2457 200.5,73.5C 199.71,72.3915 199.21,71.0581 199,69.5C 198.692,70.3081 198.192,70.9747 197.5,71.5C 194.77,70.9898 192.603,69.6564 191,67.5C 189.23,68.2764 187.397,68.1097 185.5,67C 184.341,63.4366 185.174,60.27 188,57.5C 192.927,59.9143 197.76,62.2476 202.5,64.5 Z"/></g>
<g><path style="opacity:1" fill="#323232" d="M 255.5,68.5 C 255.5,77.1667 255.5,85.8333 255.5,94.5C 248.683,92.01 242.016,89.3433 235.5,86.5C 238.937,79.0853 241.604,71.5853 243.5,64C 247.521,65.1657 251.521,66.6657 255.5,68.5 Z"/></g>
<g><path style="opacity:1" fill="#323232" d="M 169.5,64.5 C 173.424,65.5864 177.091,67.2531 180.5,69.5C 178.868,73.09 177.534,76.7567 176.5,80.5C 173.203,80.3287 172.869,80.9954 175.5,82.5C 174.948,84.3334 174.115,86.0001 173,87.5C 169.676,85.6704 166.176,84.3371 162.5,83.5C 163.124,79.4384 164.791,75.9384 167.5,73C 167.043,72.586 166.709,72.086 166.5,71.5C 167.702,69.2195 168.702,66.8862 169.5,64.5 Z"/></g>
<g><path style="opacity:1" fill="#323232" d="M -0.5,65.5 C 4.64512,67.1047 9.64512,69.1047 14.5,71.5C 12.276,77.6147 9.77602,83.6147 7,89.5C 4.69218,88.0087 2.19218,87.0087 -0.5,86.5C -0.5,79.5 -0.5,72.5 -0.5,65.5 Z"/></g>
<g><path style="opacity:1" fill="#484848" d="M 234.5,20.5 C 234.5,21.1667 234.5,21.8333 234.5,22.5C 231.073,29.691 227.906,37.0243 225,44.5C 224.167,45.3333 223.333,46.1667 222.5,47C 219.46,47.3201 216.46,47.3201 213.5,47C 212.333,48.1667 211.167,49.3333 210,50.5C 207.102,57.1934 204.602,64.0267 202.5,71C 202.667,71.8333 202.833,72.6667 203,73.5C 210.183,77.1748 217.683,80.1748 225.5,82.5C 225.842,83.3382 226.508,83.6716 227.5,83.5C 229.297,84.7298 231.297,85.3964 233.5,85.5C 233.842,86.3382 234.508,86.6716 235.5,86.5C 242.016,89.3433 248.683,92.01 255.5,94.5C 255.5,95.1667 255.5,95.8333 255.5,96.5C 253.5,95.8333 251.5,95.1667 249.5,94.5C 239.916,90.6384 230.249,86.9717 220.5,83.5C 220.158,82.6618 219.492,82.3284 218.5,82.5C 217.292,81.7659 215.959,81.4326 214.5,81.5C 211.017,79.5944 207.35,77.9278 203.5,76.5C 202.167,75.8333 201.167,74.8333 200.5,73.5C 200.207,70.2457 200.874,67.2457 202.5,64.5C 202.833,63.1667 203.167,61.8333 203.5,60.5C 205.344,56.99 207.011,53.3233 208.5,49.5C 208.5,49.1667 208.5,48.8333 208.5,48.5C 209.833,47.8333 210.833,46.8333 211.5,45.5C 213.379,44.6586 215.379,44.3253 217.5,44.5C 219.489,45.8866 221.322,45.5532 223,43.5C 225.846,36.4787 228.679,29.4787 231.5,22.5C 232.043,22.44 232.376,22.1067 232.5,21.5C 231.37,20.3777 230.703,19.0443 230.5,17.5C 234.479,12.2347 238.479,6.90139 242.5,1.5C 242.833,1.83333 243.167,2.16667 243.5,2.5C 240.028,7.80557 236.361,12.9722 232.5,18C 233.381,18.7083 234.047,19.5416 234.5,20.5 Z"/></g>
<g><path style="opacity:1" fill="#323232" d="M 47.5,62.5 C 49.6802,63.1171 51.6802,64.1171 53.5,65.5C 52.624,66.2508 51.624,66.7508 50.5,67C 51.8721,67.4017 53.2054,67.9017 54.5,68.5C 54.6691,67.6034 55.0024,66.6034 55.5,65.5C 57.1338,65.968 58.3005,66.968 59,68.5C 60.7067,67.8617 62.54,67.8617 64.5,68.5C 64.3259,70.861 63.9926,73.1944 63.5,75.5C 60.4017,75.4125 60.0684,75.9125 62.5,77C 61.6302,79.911 60.1302,82.411 58,84.5C 53.1293,82.932 48.2959,81.2653 43.5,79.5C 42.5072,76.7618 42.8406,74.0951 44.5,71.5C 46.0207,71.1203 47.6874,70.9536 49.5,71C 47.1224,70.0255 47.4557,69.3589 50.5,69C 49.3333,68.5 48.5,67.6667 48,66.5C 47.5814,67.6721 46.9147,68.6721 46,69.5C 45.7607,67.0405 46.2607,64.7072 47.5,62.5 Z"/></g>
<g><path style="opacity:1" fill="#323232" d="M 233.5,85.5 C 231.297,85.3964 229.297,84.7298 227.5,83.5C 228.301,79.7653 229.301,76.0986 230.5,72.5C 233.598,72.5875 233.932,72.0875 231.5,71C 232.964,67.2355 234.798,63.7355 237,60.5C 238.951,60.8877 240.451,61.8877 241.5,63.5C 240.484,66.8548 239.484,70.1881 238.5,73.5C 235.402,73.4125 235.068,73.9125 237.5,75C 236.067,78.4679 234.733,81.9679 233.5,85.5 Z"/></g>
<g><path style="opacity:1" fill="#323232" d="M 190.5,97.5 C 188.741,103.808 186.074,109.808 182.5,115.5C 186.125,118.623 189.625,121.956 193,125.5C 193.333,124.833 193.667,124.167 194,123.5C 194.384,126.06 195.217,128.394 196.5,130.5C 193.969,138.259 191.135,145.925 188,153.5C 187.245,156.303 187.578,158.97 189,161.5C 206.667,168.056 224.5,174.223 242.5,180C 243.931,180.465 245.097,181.299 246,182.5C 241.439,197.515 236.439,212.515 231,227.5C 230.278,230.261 230.445,232.927 231.5,235.5C 226.067,238.051 220.733,240.885 215.5,244C 217.809,244.756 219.809,244.256 221.5,242.5C 223.27,243.82 223.603,245.32 222.5,247C 228.135,250.678 227.801,253.511 221.5,255.5C 185.833,255.5 150.167,255.5 114.5,255.5C 94.656,247.494 74.4893,240.161 54,233.5C 51.9658,233.354 50.2991,234.02 49,235.5C 46.5913,242.229 44.0913,248.896 41.5,255.5C 27.5,255.5 13.5,255.5 -0.5,255.5C -0.5,234.5 -0.5,213.5 -0.5,192.5C 0.961599,193.458 2.29493,194.624 3.5,196C 19.6135,201.695 35.6135,207.695 51.5,214C 54.9563,215.123 57.7897,214.29 60,211.5C 76.9704,163.771 94.4704,116.271 112.5,69C 115.257,68.4163 117.923,68.7496 120.5,70C 132.916,75.1387 145.249,80.4721 157.5,86C 168.722,89.5721 179.722,93.4055 190.5,97.5 Z"/></g>
<g><path style="opacity:1" fill="#323232" d="M 203.5,76.5 C 207.35,77.9278 211.017,79.5944 214.5,81.5C 212.759,88.0573 210.426,94.3906 207.5,100.5C 202.03,98.6792 196.697,96.6792 191.5,94.5C 194.531,89.1068 197.198,83.4402 199.5,77.5C 200.905,77.24 202.238,76.9066 203.5,76.5 Z"/></g>
<g><path style="opacity:1" fill="#323232" d="M 23.5,74.5 C 25.5,74.8333 27.5,75.1667 29.5,75.5C 29.0646,78.6127 30.0646,79.2793 32.5,77.5C 35.1084,77.9228 37.4417,78.9228 39.5,80.5C 38.8545,82.4321 37.5212,83.5988 35.5,84C 36.3081,84.3076 36.9747,84.8076 37.5,85.5C 36.215,89.6962 34.5483,93.6962 32.5,97.5C 27.6863,95.2288 22.6863,93.5621 17.5,92.5C 18.9048,86.2855 20.9048,80.2855 23.5,74.5 Z"/></g>
<g><path style="opacity:1" fill="#323232" d="M 189.5,94.5 C 185.752,93.1421 182.086,91.8087 178.5,90.5C 178.938,90.5654 179.272,90.3988 179.5,90C 177.777,89.4768 176.444,88.4768 175.5,87C 176.276,84.0053 177.443,81.172 179,78.5C 180.388,79.5536 181.888,79.7203 183.5,79C 181.714,78.8038 180.381,77.9705 179.5,76.5C 180.577,74.0877 181.744,71.7543 183,69.5C 187.534,71.4012 192.034,73.4012 196.5,75.5C 195.872,77.2581 194.872,78.7581 193.5,80C 194.345,81.5581 193.679,82.5581 191.5,83C 191.957,83.414 192.291,83.914 192.5,84.5C 190.688,87.6026 189.688,90.9359 189.5,94.5 Z"/></g>
<g><path style="opacity:1" fill="#303030" d="M 214.5,81.5 C 215.959,81.4326 217.292,81.7659 218.5,82.5C 218.579,83.9305 218.246,85.2638 217.5,86.5C 218.376,87.2508 219.376,87.7508 220.5,88C 216.741,88.1306 215.408,89.7973 216.5,93C 213.953,95.253 212.286,98.0864 211.5,101.5C 215.966,103.599 220.466,105.599 225,107.5C 226.964,105.147 227.464,102.647 226.5,100C 228.656,98.3966 229.99,96.23 230.5,93.5C 229.975,92.8076 229.308,92.3076 228.5,92C 229.624,91.7508 230.624,91.2508 231.5,90.5C 227.961,88.5641 224.294,86.8974 220.5,85.5C 219.227,84.7435 219.227,84.0768 220.5,83.5C 230.249,86.9717 239.916,90.6384 249.5,94.5C 249.082,95.2216 248.416,95.7216 247.5,96C 249.991,96.6259 249.991,97.4593 247.5,98.5C 250.076,99.8834 249.742,100.717 246.5,101C 248.878,101.974 248.544,102.641 245.5,103C 243.285,104.943 243.285,106.609 245.5,108C 244.552,108.483 243.552,108.649 242.5,108.5C 241.862,110.46 241.862,112.293 242.5,114C 246.756,115.807 251.089,117.307 255.5,118.5C 255.5,126.5 255.5,134.5 255.5,142.5C 251.973,142.047 248.973,140.547 246.5,138C 247.428,137.612 248.095,136.945 248.5,136C 250.494,131.548 251.994,127.048 253,122.5C 249.13,120.566 245.13,118.9 241,117.5C 240.055,117.905 239.388,118.572 239,119.5C 238.691,118.234 238.191,117.067 237.5,116C 233.244,114.193 228.911,112.693 224.5,111.5C 224.649,112.552 224.483,113.552 224,114.5C 223.727,112.899 223.227,111.399 222.5,110C 218.146,108.486 213.812,106.986 209.5,105.5C 209.608,103.486 208.942,101.82 207.5,100.5C 210.426,94.3906 212.759,88.0573 214.5,81.5 Z"/></g>
<g><path style="opacity:1" fill="#323232" d="M 41.5,80.5 C 47.4137,82.2486 53.0803,84.5819 58.5,87.5C 56.973,88.9445 55.3063,89.7778 53.5,90C 54.3542,90.5739 55.3542,91.2406 56.5,92C 55.5212,94.4333 54.8545,96.9333 54.5,99.5C 50.1074,99.4568 49.7741,99.9568 53.5,101C 52.8095,102.067 52.3095,103.234 52,104.5C 46.968,102.211 41.8013,100.211 36.5,98.5C 35.5098,95.6304 36.1764,93.1304 38.5,91C 38.1667,90.6667 37.8333,90.3333 37.5,90C 38.0016,86.9805 39.6682,84.9805 42.5,84C 40.273,83.296 39.9397,82.1294 41.5,80.5 Z"/></g>
<g><path style="opacity:1" fill="#343434" d="M -0.5,88.5 C 1.48174,88.9954 3.48174,89.4954 5.5,90C 6.02186,90.5613 6.3552,91.228 6.5,92C 4.43238,96.7535 2.09905,101.254 -0.5,105.5C -0.5,99.8333 -0.5,94.1667 -0.5,88.5 Z"/></g>
<g><path style="opacity:1" fill="#323232" d="M 106.5,77.5 C 102.671,88.3304 98.6713,98.9971 94.5,109.5C 83.2834,104.923 71.9501,100.423 60.5,96C 61.3727,93.1817 62.706,90.6817 64.5,88.5C 67.3171,89.0951 69.6505,90.4284 71.5,92.5C 70.6195,93.9705 69.2861,94.8038 67.5,95C 69.4473,95.9913 71.4473,96.3247 73.5,96C 72.6634,94.9887 72.33,93.8221 72.5,92.5C 80.6691,94.5564 88.6691,97.223 96.5,100.5C 96.8333,100.167 97.1667,99.8333 97.5,99.5C 92.3209,97.049 86.9875,94.8823 81.5,93C 80.8742,92.2496 80.3742,91.4162 80,90.5C 79.6924,91.3081 79.1924,91.9747 78.5,92.5C 76.677,91.2528 74.677,90.5861 72.5,90.5C 72.6567,89.1266 72.49,87.7932 72,86.5C 70.8661,90.1399 69.8661,89.8065 69,85.5C 67.951,87.1066 66.451,87.7733 64.5,87.5C 64.687,85.4357 65.187,83.4357 66,81.5C 67.425,80.7877 68.925,80.621 70.5,81C 69.8095,79.9326 69.3095,78.7659 69,77.5C 68.5774,78.9561 67.7441,79.4561 66.5,79C 68.5575,73.7091 70.7242,68.8758 73,64.5C 75.2016,65.4016 77.3683,66.4016 79.5,67.5C 77.876,68.8689 77.376,70.5355 78,72.5C 79,70.8333 80,69.1667 81,67.5C 84.4009,69.1906 87.9009,70.6906 91.5,72C 92.1905,73.0674 92.6905,74.2341 93,75.5C 93.3879,74.572 94.0546,73.9054 95,73.5C 97.6198,74.4808 100.12,75.6474 102.5,77C 101.5,77.3333 100.5,77.6667 99.5,78C 100.849,78.7724 101.682,79.9391 102,81.5C 102.112,78.5529 103.612,77.2196 106.5,77.5 Z"/></g>
<g><path style="opacity:1" fill="#323232" d="M 218.5,82.5 C 219.492,82.3284 220.158,82.6618 220.5,83.5C 219.227,84.0768 219.227,84.7435 220.5,85.5C 224.294,86.8974 227.961,88.5641 231.5,90.5C 230.624,91.2508 229.624,91.7508 228.5,92C 229.308,92.3076 229.975,92.8076 230.5,93.5C 229.99,96.23 228.656,98.3966 226.5,100C 227.464,102.647 226.964,105.147 225,107.5C 220.466,105.599 215.966,103.599 211.5,101.5C 212.286,98.0864 213.953,95.253 216.5,93C 215.408,89.7973 216.741,88.1306 220.5,88C 219.376,87.7508 218.376,87.2508 217.5,86.5C 218.246,85.2638 218.579,83.9305 218.5,82.5 Z"/></g>
<g><path style="opacity:1" fill="#323232" d="M 232.5,91.5 C 237.225,92.3511 241.892,93.5178 246.5,95C 245.127,98.9498 243.46,102.783 241.5,106.5C 240.549,105.674 239.549,105.508 238.5,106C 238.908,108.861 238.075,109.028 236,106.5C 235.833,106.833 235.667,107.167 235.5,107.5C 236.655,108.95 238.155,109.95 240,110.5C 240.591,111.483 240.257,112.15 239,112.5C 234.635,111.61 230.802,109.777 227.5,107C 227.82,105.347 228.82,104.347 230.5,104C 229.833,103.667 229.167,103.333 228.5,103C 229.123,99.3834 231.123,97.0501 234.5,96C 232.893,94.951 232.227,93.451 232.5,91.5 Z"/></g>
<g><path style="opacity:1" fill="#323232" d="M 15.5,95.5 C 26.9096,99.0255 38.2429,102.859 49.5,107C 49.9574,107.414 50.2907,107.914 50.5,108.5C 48.5918,113.977 46.4251,119.31 44,124.5C 40.3457,123.687 37.679,121.687 36,118.5C 35.4806,119.516 34.6473,120.182 33.5,120.5C 28.0601,118.965 22.7267,117.131 17.5,115C 16.1667,114 16.1667,113 17.5,112C 16.9747,111.308 16.3081,110.808 15.5,110.5C 15.4464,111.687 15.1131,113.02 14.5,114.5C 12.6675,113.752 11.0009,112.752 9.5,111.5C 10.9017,107.461 12.4017,103.461 14,99.5C 15.0674,98.8095 16.2341,98.3095 17.5,98C 16.244,97.5831 15.5774,96.7498 15.5,95.5 Z"/></g>
<g><path style="opacity:1" fill="#323232" d="M 94.5,110.5 C 93.8049,113.28 92.8049,115.947 91.5,118.5C 80.3742,113.938 69.0409,109.938 57.5,106.5C 57.6129,103.314 58.7795,100.647 61,98.5C 72.0879,102.806 83.2546,106.806 94.5,110.5 Z"/></g>
<g><path style="opacity:1" fill="#323232" d="M 249.5,94.5 C 251.5,95.1667 253.5,95.8333 255.5,96.5C 255.5,103.833 255.5,111.167 255.5,118.5C 251.089,117.307 246.756,115.807 242.5,114C 241.862,112.293 241.862,110.46 242.5,108.5C 243.552,108.649 244.552,108.483 245.5,108C 243.285,106.609 243.285,104.943 245.5,103C 248.544,102.641 248.878,101.974 246.5,101C 249.742,100.717 250.076,99.8834 247.5,98.5C 249.991,97.4593 249.991,96.6259 247.5,96C 248.416,95.7216 249.082,95.2216 249.5,94.5 Z"/></g>
<g><path style="opacity:1" fill="#323232" d="M 8.5,113.5 C 9.22158,113.918 9.72158,114.584 10,115.5C 10.414,115.043 10.914,114.709 11.5,114.5C 16.1102,116.136 20.4435,118.136 24.5,120.5C 22.7585,126.2 20.4252,131.534 17.5,136.5C 12.2364,134.866 7.23635,132.7 2.5,130C 4.9978,124.673 6.9978,119.173 8.5,113.5 Z"/></g>
<g><path style="opacity:1" fill="#323232" d="M 209.5,105.5 C 213.812,106.986 218.146,108.486 222.5,110C 223.227,111.399 223.727,112.899 224,114.5C 224.483,113.552 224.649,112.552 224.5,111.5C 228.911,112.693 233.244,114.193 237.5,116C 238.191,117.067 238.691,118.234 239,119.5C 239.388,118.572 240.055,117.905 241,117.5C 245.13,118.9 249.13,120.566 253,122.5C 251.994,127.048 250.494,131.548 248.5,136C 248.095,136.945 247.428,137.612 246.5,138C 248.973,140.547 251.973,142.047 255.5,142.5C 255.5,149.5 255.5,156.5 255.5,163.5C 254.206,164.29 253.039,165.29 252,166.5C 239.04,161.289 225.874,156.456 212.5,152C 211.333,151.5 210.5,150.667 210,149.5C 209.417,151.002 208.584,152.335 207.5,153.5C 205.167,152 202.833,150.5 200.5,149C 201.673,145.89 201.173,145.723 199,148.5C 197.008,147.335 195.175,146.002 193.5,144.5C 199.107,131.618 204.44,118.618 209.5,105.5 Z"/></g>
<g><path style="opacity:1" fill="#323232" d="M 25.5,120.5 C 32.0402,121.4 38.0402,123.567 43.5,127C 41.298,132.301 39.6313,137.801 38.5,143.5C 32.6555,141.735 26.8222,139.735 21,137.5C 21.5622,132.205 23.3956,127.371 26.5,123C 25.7476,122.329 25.4142,121.496 25.5,120.5 Z"/></g>
<g><path style="opacity:1" fill="#323232" d="M 90.5,121.5 C 86.583,134.21 81.9163,146.543 76.5,158.5C 65.2722,153.92 53.9389,149.42 42.5,145C 43.2891,142.635 44.4558,140.468 46,138.5C 56.9496,143.54 68.1162,147.207 79.5,149.5C 72.9827,146.747 66.3161,144.247 59.5,142C 58.6383,139.266 57.805,139.099 57,141.5C 53.0633,139.856 49.2299,138.023 45.5,136C 46.1258,135.25 46.6258,134.416 47,133.5C 48.7261,134.576 50.5594,134.743 52.5,134C 51.7107,130.903 50.544,130.736 49,133.5C 47.5197,131.663 47.5197,129.663 49,127.5C 53.0037,129.335 57.1704,130.668 61.5,131.5C 61.6399,133.124 60.9733,134.29 59.5,135C 61.2834,135.232 62.9501,134.732 64.5,133.5C 69.8627,135.177 75.196,136.844 80.5,138.5C 80.3505,139.552 80.5172,140.552 81,141.5C 81.6449,140.354 82.4783,139.354 83.5,138.5C 80.6896,137.854 78.8563,136.188 78,133.5C 74.7821,135.476 71.6154,134.976 68.5,132C 69.8333,131.667 71.1667,131.333 72.5,131C 69.6537,130.121 68.987,128.454 70.5,126C 67.7236,124.221 68.0569,123.221 71.5,123C 69.9556,121.813 68.2889,121.48 66.5,122C 68.4594,124.316 68.4594,126.316 66.5,128C 68.7671,129.081 68.9338,130.581 67,132.5C 61.0302,130.456 55.1969,128.122 49.5,125.5C 49.9005,123.566 50.9005,122.066 52.5,121C 51.3543,118.443 52.3543,117.11 55.5,117C 54.572,116.612 53.9054,115.945 53.5,115C 54.0294,113.441 54.696,111.941 55.5,110.5C 58.7207,109.836 61.554,110.836 64,113.5C 69.7185,114.948 74.8851,117.282 79.5,120.5C 79.4895,119.559 79.9895,118.892 81,118.5C 84.1538,119.607 87.3205,120.607 90.5,121.5 Z"/></g>
<g><path style="opacity:1" fill="#323232" d="M 19.5,139.5 C 21.045,140.23 21.8784,141.563 22,143.5C 23.1138,139.701 24.4471,139.701 26,143.5C 26.3333,142.833 26.6667,142.167 27,141.5C 30.5092,142.923 34.0092,144.423 37.5,146C 34.0988,153.308 31.0988,160.808 28.5,168.5C 24.7871,168.23 21.9537,166.564 20,163.5C 19.6667,164.167 19.3333,164.833 19,165.5C 17.1839,164.671 15.3506,163.837 13.5,163C 16.6616,161.078 18.6616,158.245 19.5,154.5C 20.376,153.749 21.376,153.249 22.5,153C 19.8877,152.361 17.5543,151.194 15.5,149.5C 16.0694,146.763 17.736,145.263 20.5,145C 18.1904,143.541 17.8571,141.708 19.5,139.5 Z"/></g>
<g><path style="opacity:1" fill="#303030" d="M 193.5,144.5 C 195.175,146.002 197.008,147.335 199,148.5C 201.173,145.723 201.673,145.89 200.5,149C 202.833,150.5 205.167,152 207.5,153.5C 208.584,152.335 209.417,151.002 210,149.5C 210.5,150.667 211.333,151.5 212.5,152C 225.874,156.456 239.04,161.289 252,166.5C 253.039,165.29 254.206,164.29 255.5,163.5C 255.5,170.5 255.5,177.5 255.5,184.5C 253.559,184.131 251.725,183.464 250,182.5C 249.667,183.167 249.333,183.833 249,184.5C 248.768,183.263 248.268,182.263 247.5,181.5C 247.167,180.833 246.833,180.167 246.5,179.5C 248.067,175.637 249.733,171.804 251.5,168C 247.655,165.758 243.655,164.924 239.5,165.5C 238.091,168.727 237.091,172.06 236.5,175.5C 236.167,175.5 235.833,175.5 235.5,175.5C 235.196,174.85 234.863,174.183 234.5,173.5C 236.029,170.246 237.362,166.913 238.5,163.5C 234.366,161.734 230.199,160.067 226,158.5C 224.37,162.571 222.87,166.571 221.5,170.5C 221.167,170.5 220.833,170.5 220.5,170.5C 221.188,166.779 222.188,163.112 223.5,159.5C 223.182,158.353 222.516,157.519 221.5,157C 218,155.833 214.5,154.667 211,153.5C 208.798,156.735 206.964,160.235 205.5,164C 206.167,164.333 206.833,164.667 207.5,165C 207.272,165.399 206.938,165.565 206.5,165.5C 205.041,165.567 203.708,165.234 202.5,164.5C 204.62,162.028 206.286,159.194 207.5,156C 202.929,152.579 198.263,149.412 193.5,146.5C 193.5,145.833 193.5,145.167 193.5,144.5 Z"/></g>
<g><path style="opacity:1" fill="#333333" d="M 193.5,146.5 C 198.263,149.412 202.929,152.579 207.5,156C 206.286,159.194 204.62,162.028 202.5,164.5C 198.027,163.511 193.861,161.844 190,159.5C 189.656,154.707 190.823,150.374 193.5,146.5 Z"/></g>
<g><path style="opacity:1" fill="#323232" d="M 220.5,170.5 C 215.607,169.204 210.94,167.538 206.5,165.5C 206.938,165.565 207.272,165.399 207.5,165C 206.833,164.667 206.167,164.333 205.5,164C 206.964,160.235 208.798,156.735 211,153.5C 214.5,154.667 218,155.833 221.5,157C 222.516,157.519 223.182,158.353 223.5,159.5C 222.188,163.112 221.188,166.779 220.5,170.5 Z"/></g>
<g><path style="opacity:1" fill="#333333" d="M 76.5,159.5 C 70.9511,177.149 64.6178,194.482 57.5,211.5C 55.9017,212.485 54.235,212.651 52.5,212C 41.6045,208.097 30.9378,203.93 20.5,199.5C 21.3764,199.631 22.0431,199.298 22.5,198.5C 24.4313,193.873 26.2647,189.206 28,184.5C 28.5743,182.508 29.741,181.008 31.5,180C 30.4987,177.302 30.9987,174.802 33,172.5C 36.073,173.858 39.2397,175.025 42.5,176C 43.0219,176.561 43.3552,177.228 43.5,178C 40.5257,185.757 37.859,193.59 35.5,201.5C 34.1266,201.343 32.7932,201.51 31.5,202C 33.0609,202.318 34.2276,203.151 35,204.5C 36.1853,202.623 37.1853,200.623 38,198.5C 39.0113,197.663 40.1779,197.33 41.5,197.5C 41.6495,196.448 41.4828,195.448 41,194.5C 40.5488,196.929 39.7155,197.096 38.5,195C 39.4738,192.713 40.8071,190.713 42.5,189C 42.0426,188.586 41.7093,188.086 41.5,187.5C 44.6862,179.947 47.6862,172.281 50.5,164.5C 51.7678,165.428 53.1011,165.595 54.5,165C 52.9984,164.417 51.6651,163.584 50.5,162.5C 51.0253,161.808 51.6919,161.308 52.5,161C 51.8742,160.25 51.3742,159.416 51,158.5C 48.829,163.684 46.6624,168.85 44.5,174C 41.1718,173.525 37.8384,172.691 34.5,171.5C 33.6806,168.596 34.3472,165.929 36.5,163.5C 37.1667,164.5 37.8333,165.5 38.5,166.5C 38.8333,166.333 39.1667,166.167 39.5,166C 35.5006,161.981 35.8339,158.314 40.5,155C 39.4629,152.188 40.1296,149.688 42.5,147.5C 45.7957,148.765 49.129,149.932 52.5,151C 52.9615,152.722 53.1282,154.555 53,156.5C 54.573,155.383 55.7397,154.05 56.5,152.5C 63.4601,155.028 70.1268,157.362 76.5,159.5 Z"/></g>
<g><path style="opacity:1" fill="#323232" d="M 235.5,175.5 C 230.607,174.204 225.94,172.538 221.5,170.5C 222.87,166.571 224.37,162.571 226,158.5C 230.199,160.067 234.366,161.734 238.5,163.5C 237.362,166.913 236.029,170.246 234.5,173.5C 234.863,174.183 235.196,174.85 235.5,175.5 Z"/></g>
<g><path style="opacity:1" fill="#484848" d="M 113.5,66.5 C 117.412,66.6243 121.079,67.6243 124.5,69.5C 142.071,77.6193 160.071,84.6193 178.5,90.5C 182.086,91.8087 185.752,93.1421 189.5,94.5C 190.167,94.5 190.833,94.5 191.5,94.5C 196.697,96.6792 202.03,98.6792 207.5,100.5C 208.942,101.82 209.608,103.486 209.5,105.5C 204.44,118.618 199.107,131.618 193.5,144.5C 193.5,145.167 193.5,145.833 193.5,146.5C 190.823,150.374 189.656,154.707 190,159.5C 193.861,161.844 198.027,163.511 202.5,164.5C 203.708,165.234 205.041,165.567 206.5,165.5C 210.94,167.538 215.607,169.204 220.5,170.5C 220.833,170.5 221.167,170.5 221.5,170.5C 225.94,172.538 230.607,174.204 235.5,175.5C 235.833,175.5 236.167,175.5 236.5,175.5C 239.683,177.01 243.016,178.343 246.5,179.5C 246.833,180.167 247.167,180.833 247.5,181.5C 247.663,183.857 247.497,186.19 247,188.5C 243.163,199.191 239.33,209.857 235.5,220.5C 235.5,220.833 235.5,221.167 235.5,221.5C 232.763,225.669 232.096,230.002 233.5,234.5C 233.5,235.167 233.833,235.5 234.5,235.5C 235.742,239.655 237.742,243.322 240.5,246.5C 244.585,254.42 243.919,255.087 238.5,248.5C 236.434,244.034 234.1,239.701 231.5,235.5C 230.445,232.927 230.278,230.261 231,227.5C 236.439,212.515 241.439,197.515 246,182.5C 245.097,181.299 243.931,180.465 242.5,180C 224.5,174.223 206.667,168.056 189,161.5C 187.578,158.97 187.245,156.303 188,153.5C 191.135,145.925 193.969,138.259 196.5,130.5C 200.442,122.19 204.109,113.69 207.5,105C 206.846,103.013 205.513,101.68 203.5,101C 199.284,99.3158 194.951,98.1491 190.5,97.5C 179.722,93.4055 168.722,89.5721 157.5,86C 145.249,80.4721 132.916,75.1387 120.5,70C 117.923,68.7496 115.257,68.4163 112.5,69C 94.4704,116.271 76.9704,163.771 60,211.5C 57.7897,214.29 54.9563,215.123 51.5,214C 35.6135,207.695 19.6135,201.695 3.5,196C 2.29493,194.624 0.961599,193.458 -0.5,192.5C -0.5,191.833 -0.5,191.167 -0.5,190.5C 4.85447,194.511 10.8545,197.178 17.5,198.5C 18.209,199.404 19.209,199.737 20.5,199.5C 30.9378,203.93 41.6045,208.097 52.5,212C 54.235,212.651 55.9017,212.485 57.5,211.5C 64.6178,194.482 70.9511,177.149 76.5,159.5C 76.5,159.167 76.5,158.833 76.5,158.5C 81.9163,146.543 86.583,134.21 90.5,121.5C 91.1098,120.609 91.4431,119.609 91.5,118.5C 92.8049,115.947 93.8049,113.28 94.5,110.5C 94.5,110.167 94.5,109.833 94.5,109.5C 98.6713,98.9971 102.671,88.3304 106.5,77.5C 107.562,74.4844 108.729,71.4844 110,68.5C 110.816,67.1772 111.983,66.5106 113.5,66.5 Z"/></g>
<g><path style="opacity:1" fill="#333333" d="M 190.5,97.5 C 194.951,98.1491 199.284,99.3158 203.5,101C 205.513,101.68 206.846,103.013 207.5,105C 204.109,113.69 200.442,122.19 196.5,130.5C 195.217,128.394 194.384,126.06 194,123.5C 193.667,124.167 193.333,124.833 193,125.5C 189.625,121.956 186.125,118.623 182.5,115.5C 186.074,109.808 188.741,103.808 190.5,97.5 Z"/></g>
<g><path style="opacity:1" fill="#333333" d="M 145.5,162.5 C 156.18,165.408 166.847,169.408 177.5,174.5C 175.568,179.796 173.735,185.129 172,190.5C 171.612,191.428 170.945,192.095 170,192.5C 159.189,189.007 148.689,184.841 138.5,180C 139.525,177.929 140.358,175.762 141,173.5C 142.356,172.62 143.856,172.286 145.5,172.5C 145.671,169.203 145.005,168.869 143.5,171.5C 142.871,168.346 143.538,165.346 145.5,162.5 Z"/></g>
<g><path style="opacity:1" fill="#333333" d="M 246.5,179.5 C 243.016,178.343 239.683,177.01 236.5,175.5C 237.091,172.06 238.091,168.727 239.5,165.5C 243.655,164.924 247.655,165.758 251.5,168C 249.733,171.804 248.067,175.637 246.5,179.5 Z"/></g>
<g><path style="opacity:1" fill="#323232" d="M 17.5,198.5 C 10.8545,197.178 4.85447,194.511 -0.5,190.5C -0.5,190.167 -0.5,189.833 -0.5,189.5C 1.15299,187.039 3.15299,184.872 5.5,183C 4.01993,178.296 5.6866,175.296 10.5,174C 9.37598,173.751 8.37598,173.251 7.5,172.5C 9.78079,171.815 12.1141,171.649 14.5,172C 13.0267,171.29 12.3601,170.124 12.5,168.5C 16.1716,167.955 15.8383,167.622 11.5,167.5C 11.5,168.5 11.5,169.5 11.5,170.5C 10.325,170.719 9.32496,170.386 8.5,169.5C 9.23574,167.459 10.0691,165.459 11,163.5C 16.8863,165.527 22.3863,168.194 27.5,171.5C 26.8772,173.711 25.8772,175.711 24.5,177.5C 23.9041,176.284 23.7374,174.951 24,173.5C 20.4465,176.948 20.6132,179.114 24.5,180C 23.5279,182.111 22.6946,184.278 22,186.5C 20.4974,186.835 19.164,186.835 18,186.5C 17.118,190.027 17.618,190.693 19.5,188.5C 19.9341,191.916 19.2675,195.249 17.5,198.5 Z"/></g>
<g><path style="opacity:1" fill="#323232" d="M 247.5,181.5 C 248.268,182.263 248.768,183.263 249,184.5C 249.333,183.833 249.667,183.167 250,182.5C 251.725,183.464 253.559,184.131 255.5,184.5C 255.5,195.833 255.5,207.167 255.5,218.5C 251.246,220.749 247.246,223.415 243.5,226.5C 241.637,223.288 238.97,221.288 235.5,220.5C 239.33,209.857 243.163,199.191 247,188.5C 247.497,186.19 247.663,183.857 247.5,181.5 Z"/></g>
<g><path style="opacity:1" fill="#2e2e2e" d="M 255.5,218.5 C 255.5,220.5 255.5,222.5 255.5,224.5C 254.518,223.859 253.518,223.193 252.5,222.5C 249.55,224.115 246.884,226.115 244.5,228.5C 246.833,231.833 249.167,235.167 251.5,238.5C 252.86,237.82 254.193,237.153 255.5,236.5C 255.5,237.167 255.5,237.833 255.5,238.5C 251.939,240.048 248.606,242.048 245.5,244.5C 247.664,247.974 246.831,248.308 243,245.5C 242.098,245.743 241.265,246.077 240.5,246.5C 243.1,244.084 245.933,241.751 249,239.5C 247.96,235.59 245.793,232.256 242.5,229.5C 240.074,231.941 237.407,233.941 234.5,235.5C 233.833,235.5 233.5,235.167 233.5,234.5C 236.51,232.646 239.176,230.313 241.5,227.5C 240.478,224.478 238.478,222.478 235.5,221.5C 235.5,221.167 235.5,220.833 235.5,220.5C 238.97,221.288 241.637,223.288 243.5,226.5C 247.246,223.415 251.246,220.749 255.5,218.5 Z"/></g>
<g><path style="opacity:1" fill="#333333" d="M 235.5,221.5 C 238.478,222.478 240.478,224.478 241.5,227.5C 239.176,230.313 236.51,232.646 233.5,234.5C 232.096,230.002 232.763,225.669 235.5,221.5 Z"/></g>
<g><path style="opacity:1" fill="#323232" d="M 255.5,224.5 C 255.5,228.5 255.5,232.5 255.5,236.5C 254.193,237.153 252.86,237.82 251.5,238.5C 249.167,235.167 246.833,231.833 244.5,228.5C 246.884,226.115 249.55,224.115 252.5,222.5C 253.518,223.193 254.518,223.859 255.5,224.5 Z"/></g>
<g><path style="opacity:1" fill="#323232" d="M 240.5,246.5 C 237.742,243.322 235.742,239.655 234.5,235.5C 237.407,233.941 240.074,231.941 242.5,229.5C 245.793,232.256 247.96,235.59 249,239.5C 245.933,241.751 243.1,244.084 240.5,246.5 Z"/></g>
<g><path style="opacity:1" fill="#2f2f2f" d="M 231.5,235.5 C 234.1,239.701 236.434,244.034 238.5,248.5C 235.788,249.047 234.288,250.713 234,253.5C 233.676,251.431 232.842,251.098 231.5,252.5C 230.438,253.425 230.438,254.425 231.5,255.5C 228.167,255.5 224.833,255.5 221.5,255.5C 227.801,253.511 228.135,250.678 222.5,247C 223.603,245.32 223.27,243.82 221.5,242.5C 219.809,244.256 217.809,244.756 215.5,244C 220.733,240.885 226.067,238.051 231.5,235.5 Z"/></g>
<g><path style="opacity:1" fill="#323232" d="M 230.5,237.5 C 232.35,240.687 234.35,243.853 236.5,247C 234.735,248.298 232.901,249.464 231,250.5C 228.61,247.456 226.776,244.29 225.5,241C 227.584,240.303 229.251,239.136 230.5,237.5 Z"/></g>
<g><path style="opacity:1" fill="#323232" d="M 255.5,238.5 C 255.5,244.167 255.5,249.833 255.5,255.5C 247.5,255.5 239.5,255.5 231.5,255.5C 230.438,254.425 230.438,253.425 231.5,252.5C 232.842,251.098 233.676,251.431 234,253.5C 234.288,250.713 235.788,249.047 238.5,248.5C 243.919,255.087 244.585,254.42 240.5,246.5C 241.265,246.077 242.098,245.743 243,245.5C 246.831,248.308 247.664,247.974 245.5,244.5C 248.606,242.048 251.939,240.048 255.5,238.5 Z"/></g>
<g><path style="opacity:1" fill="#484848" d="M 114.5,255.5 C 112.5,255.5 110.5,255.5 108.5,255.5C 90.8073,248.266 72.8073,241.599 54.5,235.5C 53.2284,235.57 52.0617,235.903 51,236.5C 48.3942,242.822 45.8942,249.156 43.5,255.5C 42.8333,255.5 42.1667,255.5 41.5,255.5C 44.0913,248.896 46.5913,242.229 49,235.5C 50.2991,234.02 51.9658,233.354 54,233.5C 74.4893,240.161 94.656,247.494 114.5,255.5 Z"/></g>
<g><path style="opacity:1" fill="#313131" d="M 108.5,255.5 C 86.8333,255.5 65.1667,255.5 43.5,255.5C 45.8942,249.156 48.3942,242.822 51,236.5C 52.0617,235.903 53.2284,235.57 54.5,235.5C 72.8073,241.599 90.8073,248.266 108.5,255.5 Z"/></g>
</svg>
