<svg width="160" height="184" viewBox="0 0 160 184" fill="none" xmlns="http://www.w3.org/2000/svg">
<rect x="70.3157" y="19.3684" width="24.2105" height="12.9123" fill="#C4C4C4"/>
<rect x="58.2105" width="48.4211" height="20.9825" rx="3.22807" fill="#EFEFEF"/>
<path d="M1.99003 59.5271L10.9723 68.5094C12.5344 70.0715 15.0671 70.0715 16.6292 68.5094L45.2112 39.9274C46.7733 38.3653 46.7733 35.8327 45.2112 34.2706L36.2289 25.2883C35.2545 24.3139 33.632 24.4762 32.87 25.6243C24.8274 37.7406 14.4423 48.1256 2.32602 56.1682C1.17798 56.9303 1.01568 58.5528 1.99003 59.5271Z" fill="#C4C4C4"/>
<circle cx="82.421" cy="106.526" r="6.45614" fill="#EFEFEF"/>
<path fill-rule="evenodd" clip-rule="evenodd" d="M82.421 171.088C118.077 171.088 146.982 142.183 146.982 106.526C146.982 70.87 118.077 41.9649 82.421 41.9649C46.7647 41.9649 17.8596 70.87 17.8596 106.526C17.8596 142.183 46.7647 171.088 82.421 171.088ZM82.421 184C125.209 184 159.895 149.314 159.895 106.526C159.895 63.7388 125.209 29.0526 82.421 29.0526C39.6335 29.0526 4.94733 63.7388 4.94733 106.526C4.94733 149.314 39.6335 184 82.421 184Z" fill="#EFEFEF"/>
<path fill-rule="evenodd" clip-rule="evenodd" d="M92.8762 57.1432C94.3667 54.3522 92.8182 50.8997 89.6799 50.4971C87.3033 50.1923 84.8805 50.0351 82.421 50.0351C71.4706 50.0351 61.2478 53.1508 52.591 58.5441C50.6124 59.7768 49.9816 62.3161 50.9818 64.4218L64.752 93.4126C66.4576 97.0034 71.5242 97.1227 73.3969 93.6162L92.8762 57.1432ZM32.655 123.417C30.3414 123.718 28.1197 122.33 27.5625 120.065C26.4956 115.727 25.9298 111.193 25.9298 106.526C25.9298 97.8547 27.8837 89.6395 31.3752 82.2968C32.7324 79.4425 36.4904 79.041 38.6817 81.3186L67.3542 111.119C70.1104 113.984 68.4312 118.766 64.4891 119.278L32.655 123.417ZM83.1089 159.062C82.6801 161.355 80.6738 163.039 78.3471 162.873C64.9355 161.917 52.8186 156.28 43.6214 147.586C41.3225 145.412 42.0996 141.71 44.9455 140.328L82.1333 122.275C85.7094 120.539 89.7383 123.614 89.0075 127.521L83.1089 159.062ZM132.612 122.114C134.66 123.23 135.642 125.658 134.762 127.818C129.838 139.912 120.844 149.915 109.481 156.127C106.705 157.644 103.424 155.761 102.99 152.628L97.31 111.667C96.764 107.729 100.933 104.847 104.424 106.75L132.612 122.114ZM112.745 63.6194C114.44 62.0155 117.054 61.8329 118.838 63.3384C128.596 71.5751 135.524 83.0588 137.956 96.1232C138.535 99.2303 135.73 101.764 132.619 101.21L91.9106 93.9544C87.9971 93.257 86.5449 88.4014 89.4329 85.6697L112.745 63.6194Z" fill="#CFCFCF"/>
</svg>
